<svg xmlns="http://www.w3.org/2000/svg" width="156" height="30" viewBox="0 0 156 30"><g id="Page-1" fill="none" fill-rule="evenodd"><g id="Artboard-4" fill="#252D37" transform="translate(-250 -27)"><path id="Combined-Shape" d="M300.842449 49.5h-8.482058V36.16h2.853963V47h5.628095v2.5zm10.058722 0h-2.554596v-1.02c-.658607.8-1.796201 1.26-3.053541 1.26-1.536749 0-3.33295-1.04-3.33295-3.2 0-2.28 1.796201-3.12 3.33295-3.12 1.297256 0 2.414892.42 3.053541 1.18v-1.22c0-.98-.838227-1.62-2.115525-1.62-1.017847 0-1.975821.4-2.774132 1.14l-.997889-1.78c1.177509-1.06 2.6943-1.52 4.211092-1.52 2.215314 0 4.23105.88 4.23105 3.66v6.24zm-4.59029-1.48c.818269 0 1.61658-.28 2.035694-.84v-1.2c-.419114-.56-1.217425-.86-2.035694-.86-.997889 0-1.816158.54-1.816158 1.46 0 .92.818269 1.44 1.816158 1.44zm9.619651 1.48h-2.534639v-9.66h2.534639v1.3c.698522-.84 1.876031-1.54 3.073498-1.54v2.48c-.17962-.04-.399156-.06-.698522-.06-.838227 0-1.955863.48-2.374976 1.1v6.38zm12.992515 0h-2.554596v-1.02c-.658606.8-1.7962 1.26-3.05354 1.26-1.536749 0-3.33295-1.04-3.33295-3.2 0-2.28 1.796201-3.12 3.33295-3.12 1.297256 0 2.414891.42 3.05354 1.18v-1.22c0-.98-.838226-1.62-2.115524-1.62-1.017847 0-1.975821.4-2.774132 1.14l-.997889-1.78c1.177509-1.06 2.6943-1.52 4.211092-1.52 2.215313 0 4.231049.88 4.231049 3.66v6.24zm-4.590289-1.48c.818269 0 1.61658-.28 2.035693-.84v-1.2c-.419113-.56-1.217424-.86-2.035693-.86-.997889 0-1.816158.54-1.816158 1.46 0 .92.818269 1.44 1.816158 1.44zm12.313951 1.48h-2.734216l-3.87181-9.66h2.714258l2.514681 6.72 2.534638-6.72h2.714259l-3.87181 9.66zm9.539819.24c-2.933793 0-5.149107-1.98-5.149107-5.08 0-2.8 2.075609-5.06 4.989445-5.06 2.893879 0 4.829783 2.16 4.829783 5.3v.6h-7.164843c.17962 1.18 1.137593 2.16 2.774131 2.16.818269 0 1.935905-.34 2.554596-.94l1.137594 1.68c-.957973.88-2.474765 1.34-3.971599 1.34zm2.235272-6c-.079831-.92-.71848-2.06-2.394934-2.06-1.576665 0-2.255229 1.1-2.355018 2.06h4.749952zm6.805604 5.76h-2.534639V36.16h2.534639V49.5zm18.999808 0h-1.596623l-7.763577-10.64V49.5h-1.656496V36.16h1.696412l7.663788 10.42V36.16h1.656496V49.5zm7.264632.24c-2.933794 0-4.76991-2.28-4.76991-5.08 0-2.8 1.836116-5.06 4.76991-5.06 2.933794 0 4.76991 2.26 4.76991 5.06s-1.836116 5.08-4.76991 5.08zm0-1.34c2.055652 0 3.193245-1.76 3.193245-3.74 0-1.96-1.137593-3.72-3.193245-3.72-2.055651 0-3.193245 1.76-3.193245 3.72 0 1.98 1.137594 3.74 3.193245 3.74zm11.415851 1.1h-1.636538l-4.011514-9.66h1.636538l3.193245 7.92 3.213203-7.92h1.61658l-4.011514 9.66zM406 49.5h-1.496834v-1.1c-.778353.88-1.895989 1.34-3.193245 1.34-1.61658 0-3.352907-1.1-3.352907-3.2 0-2.18 1.716369-3.18 3.352907-3.18 1.317214 0 2.414892.42 3.193245 1.3v-1.74c0-1.28-1.037804-2.02-2.434849-2.02-1.157551 0-2.095567.4-2.953752 1.34l-.698522-1.04c1.037805-1.08 2.275187-1.6 3.851852-1.6C404.323546 39.6 406 40.52 406 42.86v6.64zm-4.131261-.84c1.037805 0 2.055652-.4 2.634427-1.2v-1.84c-.578775-.78-1.596622-1.18-2.634427-1.18-1.417002 0-2.394934.88-2.394934 2.1 0 1.24.977932 2.12 2.394934 2.12zm-126.772778 3.9092875C272.351159 55.3056732 268.547772 57 264.344656 57c-4.678765 0-8.86221-2.0995042-11.641533-5.3987969 5.952664 4.9166684 14.81939 4.6089775 20.407324-.9230744 3.765388-3.7277319 3.765388-9.7715794 0-13.4993113s-9.870288-3.7277319-13.635676 0c-1.613738 1.5975994-1.613738 4.1878197 0 5.7854191s4.230124 1.5975994 5.843861 0c.537913-.5325331 1.410042-.5325331 1.947954 0 .537913.5325331.537913 1.3959399 0 1.9284731-2.689563 2.6626656-7.050206 2.6626656-9.739769 0-2.689562-2.6626657-2.689562-6.9796996 0-9.6423652 4.841214-4.7927982 12.690371-4.7927982 17.531584 0 4.828665 4.7803756 4.841181 12.5231974.037547 17.3189298l.000013.0000133zm.890229-20.1704889c-5.952666-4.9166701-14.819392-4.6089792-20.407326.9230727-3.765388 3.7277319-3.765388 9.7715794 0 13.4993113s9.870288 3.7277319 13.635676 0c1.613738-1.5975994 1.613738-4.1878197 0-5.7854191s-4.230124-1.5975994-5.843861 0c-.537913.5325331-1.410042.5325331-1.947954 0-.537913-.5325331-.537913-1.3959399 0-1.9284731 2.689563-2.6626656 7.050206-2.6626656 9.739769 0 2.689563 2.6626657 2.689563 6.9796996 0 9.6423652-4.841214 4.7927982-12.690371 4.7927982-17.531584 0-4.834939-4.7865868-4.841205-12.5433233-.018798-17.3376085C256.355472 28.6866207 260.151108 27 264.344656 27c4.678764 0 8.862209 2.0995042 11.641532 5.3987969z"></path></g></g></svg>